<svg xmlns="http://www.w3.org/2000/svg" viewBox="0 0 228 64" fill="none" role="img" aria-label="Sasist">
  <path d="M32 3 57.5 17.7v28.6L32 61 6.5 46.3V17.7L32 3Z" fill="#F97316"/>
  <path
    fill="#FFFFFF"
    fill-rule="evenodd"
    d="M41.5 22.6c0-3.85-3.05-6.35-8.45-6.35-3.25 0-5.95.95-7.85 2.6C23.4 20.45 22.45 22.6 22.35 25h5.75c.2-1.25.8-2.15 1.7-2.7.9-.55 2.15-.85 3.5-.85 1.7 0 2.85.35 3.5 1.05.65.6 1 1.4 1 2.35 0 .9-.35 1.55-1.05 2.15-.7.55-1.9 1.05-3.55 1.55l-3.85 1.25c-2.6.8-4.5 1.95-5.75 3.4-1.25 1.45-1.9 3.3-1.9 5.5 0 3.95 3.15 6.55 8.55 6.55 3.5 0 6.3-.95 8.35-2.7 1.9-1.7 2.95-3.95 3.05-6.55h-5.85c-.2 1.35-.9 2.4-1.9 3.05-1 .65-2.35.95-3.85.95-1.8 0-3.15-.4-3.85-1.15-.7-.7-1.05-1.6-1.05-2.6 0-1 .35-1.8 1.1-2.4.8-.6 2.15-1.15 3.95-1.7l3.95-1.25c2.55-.8 4.45-1.9 5.6-3.3 1.2-1.4 1.8-3.25 1.8-5.4Z"
  />
  <text
    x="74"
    y="44"
    fill="#0F172A"
    font-family="ui-sans-serif, system-ui, -apple-system, Segoe UI, Roboto, Helvetica, Arial, sans-serif"
    font-size="30"
    font-weight="800"
    letter-spacing="0.12em"
  >SASIST</text>
</svg>
